<svg xmlns="http://www.w3.org/2000/svg" id="floppy" fill="currentColor" viewBox="0 0 23 23">
	<path d="M0 0h1.77v1.77H0zm0 1.77h1.77v1.77H0zm0 1.77h1.77V5.3H0zM0 5.3h1.77v1.77H0zm0 1.77h1.77v1.77H0zm0 1.77h1.77v1.77H0zm0 1.77h1.77v1.76H0zm0 1.77h1.77v1.77H0zm0 1.77h1.77v1.77H0zm0 1.77h1.77v1.77H0zm0 1.77h1.77v1.77H0zm0 1.77h1.77v1.77H0zm0 1.77h1.77V23H0zM19.46 0v1.77H17.7V0zM17.7 0v1.77h-1.77V0zm-1.77 0v1.77h-1.77V0zm-1.77 0v1.77h-1.77V0zm-1.77 0v1.77h-1.76V0zm-1.77 0v1.77H8.85V0zM8.85 0v1.77H7.08V0zM7.08 0v1.77H5.3V0zM5.3 0v1.77H3.54V0zM3.54 0v1.77H1.77V0zm17.7 1.77v1.77h-1.78V1.77zM5.3 3.54V5.3H3.54V3.54zm0-1.77v1.77H3.55V1.77zm0 3.54v1.77H3.55V5.3zm12.4-1.77V5.3h-1.78V3.54zm0-1.77v1.77h-1.78V1.77zm0 3.54v1.77h-1.78V5.3zm-3.55-1.77V5.3h-1.77V3.54zm0-1.77v1.77h-1.77V1.77zm0 3.54v1.77h-1.77V5.3zm3.54 1.77v1.77h-1.77V7.08zm-1.77 0v1.77h-1.77V7.08zm-1.77 0v1.77h-1.77V7.08zm-1.77 0v1.77h-1.76V7.08zm-1.76 0v1.77H8.85V7.08zm-1.77 0v1.77H7.08V7.08zm-1.77 0v1.77H5.3V7.08zm-1.77 0v1.77H3.54V7.08zm14.15 5.3v1.77H17.7v-1.77zm-1.77 0v1.77h-1.77v-1.77zm-1.77 0v1.77h-1.77v-1.77zm-1.77 0v1.77h-1.77v-1.77zm-1.77 0v1.77h-1.76v-1.77zm-1.76 0v1.77H8.85v-1.77zm-1.77 0v1.77H7.08v-1.77zm-1.77 0v1.77H5.3v-1.77zm-1.77 0v1.77H3.54v-1.77zm14.15 1.77v1.77H17.7v-1.77zm-14.15 0v1.77H3.54v-1.77zm14.15 1.77v1.77H17.7v-1.77zm-14.15 0v1.77H3.54v-1.77zm14.15 1.77v1.77H17.7V17.7zm-14.15 0v1.77H3.54V17.7zm0 1.77v1.77H3.54v-1.77zm14.15 0v1.77H17.7v-1.77zm1.77 1.77V23h-1.77v-1.77zm-1.77 0V23H17.7v-1.77zm-1.77 0V23h-1.77v-1.77zm-1.77 0V23h-1.77v-1.77zm-1.77 0V23h-1.77v-1.77zm-1.77 0V23h-1.76v-1.77zm-1.76 0V23H8.85v-1.77zm-1.77 0V23H7.08v-1.77zm-1.77 0V23H5.3v-1.77zm-1.77 0V23H3.54v-1.77zm-1.77 0V23H1.77v-1.77zM23 23h-1.77v-1.77H23zm0-1.77h-1.77v-1.77H23zm0-1.77h-1.77V17.7H23zm0-1.77h-1.77v-1.77H23zm0-1.77h-1.77v-1.77H23zm0-1.77h-1.77v-1.77H23zm0-1.77h-1.77v-1.76H23zm0-1.76h-1.77V8.85H23zm0-1.77h-1.77V7.08H23zm0-1.77h-1.77V5.3H23zm0-1.77h-1.77V3.54H23z" />
</svg>
