<svg width="28.000000" height="28.000000" viewBox="0 0 28 28" fill="none" xmlns="http://www.w3.org/2000/svg" xmlns:xlink="http://www.w3.org/1999/xlink">
	<symbol id='1' stroke='currentColor' fill='currentColor'>
	<rect id="Rectangle 18" x="-0.500000" width="2.153846" height="2.153846" fill="#000000" fill-opacity="1.000000"/>
	<rect id="Rectangle 17" x="-0.500000" y="2.153809" width="2.153846" height="2.153846" fill="#000000" fill-opacity="1.000000"/>
	<rect id="Rectangle 19" x="-0.500000" y="4.307617" width="2.153846" height="2.153846" fill="#000000" fill-opacity="1.000000"/>
	<rect id="Rectangle 20" x="-0.500000" y="6.461426" width="2.153846" height="2.153846" fill="#000000" fill-opacity="1.000000"/>
	<rect id="Rectangle 21" x="-0.500000" y="8.615234" width="2.153846" height="2.153846" fill="#000000" fill-opacity="1.000000"/>
	<rect id="Rectangle 22" x="-0.500000" y="10.769043" width="2.153846" height="2.153846" fill="#000000" fill-opacity="1.000000"/>
	<rect id="Rectangle 23" x="-0.500000" y="12.923340" width="2.153846" height="2.153846" fill="#000000" fill-opacity="1.000000"/>
	<rect id="Rectangle 24" x="-0.500000" y="15.076660" width="2.153846" height="2.153846" fill="#000000" fill-opacity="1.000000"/>
	<rect id="Rectangle 25" x="-0.500000" y="17.230957" width="2.153846" height="2.153846" fill="#000000" fill-opacity="1.000000"/>
	<rect id="Rectangle 26" x="-0.500000" y="19.384766" width="2.153846" height="2.153846" fill="#000000" fill-opacity="1.000000"/>
	<rect id="Rectangle 27" x="-0.500000" y="21.538574" width="2.153846" height="2.153846" fill="#000000" fill-opacity="1.000000"/>
	<rect id="Rectangle 28" x="-0.500000" y="23.692383" width="2.153846" height="2.153846" fill="#000000" fill-opacity="1.000000"/>
	<rect id="Rectangle 29" x="-0.500000" y="25.846191" width="2.153846" height="2.153846" fill="#000000" fill-opacity="1.000000"/>
	<rect id="Rectangle 32" x="23.192749" width="2.153846" height="2.153846" transform="rotate(90 23.192749 0.000000)" fill="#000000" fill-opacity="1.000000"/>
	<rect id="Rectangle 33" x="21.039062" width="2.153846" height="2.153846" transform="rotate(90 21.039062 0.000000)" fill="#000000" fill-opacity="1.000000"/>
	<rect id="Rectangle 34" x="18.884033" width="2.153846" height="2.153846" transform="rotate(90 18.884033 0.000000)" fill="#000000" fill-opacity="1.000000"/>
	<rect id="Rectangle 35" x="16.730469" width="2.153846" height="2.153846" transform="rotate(90 16.730469 0.000000)" fill="#000000" fill-opacity="1.000000"/>
	<rect id="Rectangle 36" x="14.576904" width="2.153846" height="2.153846" transform="rotate(90 14.576904 0.000000)" fill="#000000" fill-opacity="1.000000"/>
	<rect id="Rectangle 37" x="12.423096" width="2.153846" height="2.153846" transform="rotate(90 12.423096 0.000000)" fill="#000000" fill-opacity="1.000000"/>
	<rect id="Rectangle 38" x="10.269531" width="2.153846" height="2.153846" transform="rotate(90 10.269531 0.000000)" fill="#000000" fill-opacity="1.000000"/>
	<rect id="Rectangle 39" x="8.115967" width="2.153846" height="2.153846" transform="rotate(90 8.115967 0.000000)" fill="#000000" fill-opacity="1.000000"/>
	<rect id="Rectangle 40" x="5.960938" width="2.153846" height="2.153846" transform="rotate(90 5.960938 0.000000)" fill="#000000" fill-opacity="1.000000"/>
	<rect id="Rectangle 41" x="3.807373" width="2.153846" height="2.153846" transform="rotate(90 3.807373 0.000000)" fill="#000000" fill-opacity="1.000000"/>
	<rect id="Rectangle 65" x="25.346313" y="2.153809" width="2.153846" height="2.153846" transform="rotate(90 25.346313 2.153809)" fill="#000000" fill-opacity="1.000000"/>
	<rect id="Rectangle 85" x="5.960938" y="4.307617" width="2.153846" height="2.153846" transform="rotate(90 5.960938 4.307617)" fill="#000000" fill-opacity="1.000000"/>
	<rect id="Rectangle 176" x="5.960938" y="2.153809" width="2.153846" height="2.153846" transform="rotate(90 5.960938 2.153809)" fill="#000000" fill-opacity="1.000000"/>
	<rect id="Rectangle 96" x="5.960938" y="6.461426" width="2.153846" height="2.153846" transform="rotate(90 5.960938 6.461426)" fill="#000000" fill-opacity="1.000000"/>
	<rect id="Rectangle 177" x="21.039062" y="4.307617" width="2.153846" height="2.153846" transform="rotate(90 21.039062 4.307617)" fill="#000000" fill-opacity="1.000000"/>
	<rect id="Rectangle 178" x="21.039062" y="2.153809" width="2.153846" height="2.153846" transform="rotate(90 21.039062 2.153809)" fill="#000000" fill-opacity="1.000000"/>
	<rect id="Rectangle 179" x="21.039062" y="6.461426" width="2.153846" height="2.153846" transform="rotate(90 21.039062 6.461426)" fill="#000000" fill-opacity="1.000000"/>
	<rect id="Rectangle 180" x="16.730469" y="4.307617" width="2.153846" height="2.153846" transform="rotate(90 16.730469 4.307617)" fill="#000000" fill-opacity="1.000000"/>
	<rect id="Rectangle 181" x="16.730469" y="2.153809" width="2.153846" height="2.153846" transform="rotate(90 16.730469 2.153809)" fill="#000000" fill-opacity="1.000000"/>
	<rect id="Rectangle 182" x="16.730469" y="6.461426" width="2.153846" height="2.153846" transform="rotate(90 16.730469 6.461426)" fill="#000000" fill-opacity="1.000000"/>
	<rect id="Rectangle 100" x="21.039062" y="8.615234" width="2.153846" height="2.153846" transform="rotate(90 21.039062 8.615234)" fill="#000000" fill-opacity="1.000000"/>
	<rect id="Rectangle 101" x="18.884033" y="8.615234" width="2.153846" height="2.153846" transform="rotate(90 18.884033 8.615234)" fill="#000000" fill-opacity="1.000000"/>
	<rect id="Rectangle 102" x="16.730469" y="8.615234" width="2.153846" height="2.153846" transform="rotate(90 16.730469 8.615234)" fill="#000000" fill-opacity="1.000000"/>
	<rect id="Rectangle 103" x="14.576904" y="8.615234" width="2.153846" height="2.153846" transform="rotate(90 14.576904 8.615234)" fill="#000000" fill-opacity="1.000000"/>
	<rect id="Rectangle 104" x="12.423096" y="8.615234" width="2.153846" height="2.153846" transform="rotate(90 12.423096 8.615234)" fill="#000000" fill-opacity="1.000000"/>
	<rect id="Rectangle 105" x="10.269531" y="8.615234" width="2.153846" height="2.153846" transform="rotate(90 10.269531 8.615234)" fill="#000000" fill-opacity="1.000000"/>
	<rect id="Rectangle 106" x="8.115967" y="8.615234" width="2.153846" height="2.153846" transform="rotate(90 8.115967 8.615234)" fill="#000000" fill-opacity="1.000000"/>
	<rect id="Rectangle 107" x="5.960938" y="8.615234" width="2.153846" height="2.153846" transform="rotate(90 5.960938 8.615234)" fill="#000000" fill-opacity="1.000000"/>
	<rect id="Rectangle 132" x="23.192749" y="15.076660" width="2.153846" height="2.153846" transform="rotate(90 23.192749 15.076660)" fill="#000000" fill-opacity="1.000000"/>
	<rect id="Rectangle 133" x="21.039062" y="15.076660" width="2.153846" height="2.153846" transform="rotate(90 21.039062 15.076660)" fill="#000000" fill-opacity="1.000000"/>
	<rect id="Rectangle 134" x="18.884033" y="15.076660" width="2.153846" height="2.153846" transform="rotate(90 18.884033 15.076660)" fill="#000000" fill-opacity="1.000000"/>
	<rect id="Rectangle 135" x="16.730469" y="15.076660" width="2.153846" height="2.153846" transform="rotate(90 16.730469 15.076660)" fill="#000000" fill-opacity="1.000000"/>
	<rect id="Rectangle 136" x="14.576904" y="15.076660" width="2.153846" height="2.153846" transform="rotate(90 14.576904 15.076660)" fill="#000000" fill-opacity="1.000000"/>
	<rect id="Rectangle 137" x="12.423096" y="15.076660" width="2.153846" height="2.153846" transform="rotate(90 12.423096 15.076660)" fill="#000000" fill-opacity="1.000000"/>
	<rect id="Rectangle 138" x="10.269531" y="15.076660" width="2.153846" height="2.153846" transform="rotate(90 10.269531 15.076660)" fill="#000000" fill-opacity="1.000000"/>
	<rect id="Rectangle 139" x="8.115967" y="15.076660" width="2.153846" height="2.153846" transform="rotate(90 8.115967 15.076660)" fill="#000000" fill-opacity="1.000000"/>
	<rect id="Rectangle 140" x="5.960938" y="15.076660" width="2.153846" height="2.153846" transform="rotate(90 5.960938 15.076660)" fill="#000000" fill-opacity="1.000000"/>
	<rect id="Rectangle 143" x="23.192749" y="17.230957" width="2.153846" height="2.153846" transform="rotate(90 23.192749 17.230957)" fill="#000000" fill-opacity="1.000000"/>
	<rect id="Rectangle 151" x="5.960938" y="17.230957" width="2.153846" height="2.153846" transform="rotate(90 5.960938 17.230957)" fill="#000000" fill-opacity="1.000000"/>
	<rect id="Rectangle 154" x="23.192749" y="19.384766" width="2.153846" height="2.153846" transform="rotate(90 23.192749 19.384766)" fill="#000000" fill-opacity="1.000000"/>
	<rect id="Rectangle 162" x="5.960938" y="19.384766" width="2.153846" height="2.153846" transform="rotate(90 5.960938 19.384766)" fill="#000000" fill-opacity="1.000000"/>
	<rect id="Rectangle 165" x="23.192749" y="21.538574" width="2.153846" height="2.153846" transform="rotate(90 23.192749 21.538574)" fill="#000000" fill-opacity="1.000000"/>
	<rect id="Rectangle 173" x="5.960938" y="21.538574" width="2.153846" height="2.153846" transform="rotate(90 5.960938 21.538574)" fill="#000000" fill-opacity="1.000000"/>
	<rect id="Rectangle 174" x="5.960938" y="23.692383" width="2.153846" height="2.153846" transform="rotate(90 5.960938 23.692383)" fill="#000000" fill-opacity="1.000000"/>
	<rect id="Rectangle 175" x="23.192749" y="23.692383" width="2.153846" height="2.153846" transform="rotate(90 23.192749 23.692383)" fill="#000000" fill-opacity="1.000000"/>
	<rect id="Rectangle 54" x="25.346313" y="25.846191" width="2.153846" height="2.153846" transform="rotate(90 25.346313 25.846191)" fill="#000000" fill-opacity="1.000000"/>
	<rect id="Rectangle 55" x="23.192749" y="25.846191" width="2.153846" height="2.153846" transform="rotate(90 23.192749 25.846191)" fill="#000000" fill-opacity="1.000000"/>
	<rect id="Rectangle 56" x="21.039062" y="25.846191" width="2.153846" height="2.153846" transform="rotate(90 21.039062 25.846191)" fill="#000000" fill-opacity="1.000000"/>
	<rect id="Rectangle 57" x="18.884033" y="25.846191" width="2.153846" height="2.153846" transform="rotate(90 18.884033 25.846191)" fill="#000000" fill-opacity="1.000000"/>
	<rect id="Rectangle 58" x="16.730469" y="25.846191" width="2.153846" height="2.153846" transform="rotate(90 16.730469 25.846191)" fill="#000000" fill-opacity="1.000000"/>
	<rect id="Rectangle 59" x="14.576904" y="25.846191" width="2.153846" height="2.153846" transform="rotate(90 14.576904 25.846191)" fill="#000000" fill-opacity="1.000000"/>
	<rect id="Rectangle 60" x="12.423096" y="25.846191" width="2.153846" height="2.153846" transform="rotate(90 12.423096 25.846191)" fill="#000000" fill-opacity="1.000000"/>
	<rect id="Rectangle 61" x="10.269531" y="25.846191" width="2.153846" height="2.153846" transform="rotate(90 10.269531 25.846191)" fill="#000000" fill-opacity="1.000000"/>
	<rect id="Rectangle 62" x="8.115967" y="25.846191" width="2.153846" height="2.153846" transform="rotate(90 8.115967 25.846191)" fill="#000000" fill-opacity="1.000000"/>
	<rect id="Rectangle 63" x="5.960938" y="25.846191" width="2.153846" height="2.153846" transform="rotate(90 5.960938 25.846191)" fill="#000000" fill-opacity="1.000000"/>
	<rect id="Rectangle 64" x="3.807373" y="25.846191" width="2.153846" height="2.153846" transform="rotate(90 3.807373 25.846191)" fill="#000000" fill-opacity="1.000000"/>
	<rect id="Rectangle 42" x="27.500000" y="28.000000" width="2.153846" height="2.153846" transform="rotate(-180 27.500000 28.000000)" fill="#000000" fill-opacity="1.000000"/>
	<rect id="Rectangle 43" x="27.500000" y="25.846191" width="2.153846" height="2.153846" transform="rotate(-180 27.500000 25.846191)" fill="#000000" fill-opacity="1.000000"/>
	<rect id="Rectangle 44" x="27.500000" y="23.692383" width="2.153846" height="2.153846" transform="rotate(-180 27.500000 23.692383)" fill="#000000" fill-opacity="1.000000"/>
	<rect id="Rectangle 45" x="27.500000" y="21.538574" width="2.153846" height="2.153846" transform="rotate(-180 27.500000 21.538574)" fill="#000000" fill-opacity="1.000000"/>
	<rect id="Rectangle 46" x="27.500000" y="19.384766" width="2.153846" height="2.153846" transform="rotate(-180 27.500000 19.384766)" fill="#000000" fill-opacity="1.000000"/>
	<rect id="Rectangle 47" x="27.500000" y="17.230957" width="2.153846" height="2.153846" transform="rotate(-180 27.500000 17.230957)" fill="#000000" fill-opacity="1.000000"/>
	<rect id="Rectangle 48" x="27.500000" y="15.076660" width="2.153846" height="2.153846" transform="rotate(-180 27.500000 15.076660)" fill="#000000" fill-opacity="1.000000"/>
	<rect id="Rectangle 49" x="27.500000" y="12.923340" width="2.153846" height="2.153846" transform="rotate(-180 27.500000 12.923340)" fill="#000000" fill-opacity="1.000000"/>
	<rect id="Rectangle 50" x="27.500000" y="10.769043" width="2.153846" height="2.153846" transform="rotate(-180 27.500000 10.769043)" fill="#000000" fill-opacity="1.000000"/>
	<rect id="Rectangle 51" x="27.500000" y="8.615234" width="2.153846" height="2.153846" transform="rotate(-180 27.500000 8.615234)" fill="#000000" fill-opacity="1.000000"/>
	<rect id="Rectangle 52" x="27.500000" y="6.461426" width="2.153846" height="2.153846" transform="rotate(-180 27.500000 6.461426)" fill="#000000" fill-opacity="1.000000"/>
	</symbol>
</svg>
